<svg xmlns="http://www.w3.org/2000/svg" viewBox="0 0 32 32">
    <rect width="22" height="22" x="5" y="5" fill="none" stroke="#ffffff"
        stroke-miterlimit="10"
        stroke-width="2"  />
    <polygon fill="#FFFFFF" points="17.588,14 10.325,14 10.325,15.873 12.879,15.873 12.879,24.016 14.98,24.016 14.98,15.873 17.588,15.873" />
    <path fill="#FFFFFF" d="M23.547,16.373c0,0-0.978-0.652-2.083-0.652c-1.105,0-1.503,0.525-1.503,1.087c0,1.449,4.039,1.304,4.039,4.22	c0,4.492-6.158,2.5-6.158,2.5v-2.155c0,0,1.177,0.888,2.59,0.888s1.358-0.924,1.358-1.051c0-1.34-4.003-1.34-4.003-4.311	c0-4.039,5.832-2.445,5.832-2.445L23.547,16.373z" />
</svg>