 <svg fill="#e7ecef" id="Camada_1" data-name="Camada 1" xmlns="http://www.w3.org/2000/svg" viewBox="0 0 1366 768"><path class="cls-1" d="M1215.27,498.15c-23.08-56.88-69.26-154.13-92.34-189-22.61-34.14-45.22,3.85-46.15,5.45a.41.41,0,0,1-.07.11c-1.71,2.49-55.7,81.14-76.15,110-20.77,29.36-23.08,29.36-73.87,22s-168.54,0-203.17,7.34S682,448.61,675,426.59s-25.4-62.39-51.95-102.49-49.63-7.6-49.63-7.6-50.8,73.39-103.9,196.33C419.32,629.14,398.81,704.92,398.81,733h879.62C1277.34,601.68,1237.83,553.73,1215.27,498.15Z"/><path fill="#0e1720" d="M1066,500.17a14.78,14.78,0,0,1-11.93-21.25c9-18.43,32.78-64.41,45.93-64.55,18.17-.19,29.09,28.81,40.69,62.1,6.34,18.21-4.37,26.24-14.68,26.77C1108.83,504.13,1082.62,501.64,1066,500.17Z"/><path fill="#0e1720" d="M624.22,501a14.77,14.77,0,0,0,11.93-21.25c-9-18.42-32.78-64.4-45.92-64.54-18.18-.2-29.1,28.8-40.7,62.09-6.34,18.21,4.37,26.24,14.68,26.78C581.38,504.94,607.6,502.44,624.22,501Z"/><path class="cls-1" d="M107.49,538.85c-26.35-118.26-27.38-222.53,1.85-290.73S184.48,110,243.54,72.29,391.65,10.51,484.2,62.85s120.38,118.91,77,136.75c-35.93,14.77-72.59-12.2-105-38.86-30-24.64-74-22.11-111.41-13.9-39.42,8.65-102.05,59-118.07,133.34-28.53,132.39-13,182-3.52,220.62C247.47,600,271.36,648.05,327.67,735.31H181.26C151.2,675.31,123.57,611,107.49,538.85Z"/><path fill="#0e1720" d="M669,622.84c71.41-9.39,66.24,36.91,59.68,59.62a36.48,36.48,0,0,1-12.25,18.34h0a2.63,2.63,0,0,1-4.22-1.55c-1.93-9.44-9.16-30.59-35.2-28.41-23.18,1.94-26.94,19.21-27.07,29.6a2.62,2.62,0,0,1-4.66,1.63C630.94,684.06,596.82,632.34,669,622.84Z"/><path fill="#0e1720" d="M1041.67,702.07a2.62,2.62,0,0,1-4.67-1.63c-.13-10.39-3.89-27.66-27.07-29.6-26-2.18-33.27,19-35.19,28.41a2.64,2.64,0,0,1-4.23,1.55h0a36.48,36.48,0,0,1-12.25-18.34c-6.56-22.71-11.73-69,59.68-59.62C1090.13,632.34,1056,684.06,1041.67,702.07Z"/></svg> 